# xmcd
#
# Track frame offsets:
# 150
# 11505
# 26570
# 37723
# 48900
# 63678
# 73355
# 86959
# 98445
# 108834
# 120853
#
# Disc length: 1774 seconds
#
# Revision: 0
# Processed by: cddbd v1.5.1PL2 Copyright (c) Steve Scherf et al.
# Submitted via: Audion 3.0.2 (http://www.panic.com/audion/)
#
DISCID=8306ec0b
DTITLE=memphis horns - memphis horns
DYEAR=1900
DGENRE=
TTITLE0=i cant turn you loose
TTITLE1=soul bowl
TTITLE2=woolly bully
TTITLE3=one mile high
TTITLE4=tribute to sam and dave
TTITLE5=sanitation man
TTITLE6=share your love with me
TTITLE7=cry like a baby
TTITLE8=cherry tree
TTITLE9=sad song
TTITLE10=time
EXTD=
EXTT0=
EXTT1=
EXTT2=
EXTT3=
EXTT4=
EXTT5=
EXTT6=
EXTT7=
EXTT8=
EXTT9=
EXTT10=
PLAYORDER=
